<?xml version="1.0" standalone="no"?>
<!DOCTYPE svg PUBLIC "-//W3C//DTD SVG 20010904//EN"
 "http://www.w3.org/TR/2001/REC-SVG-20010904/DTD/svg10.dtd">
<svg version="1.0" xmlns="http://www.w3.org/2000/svg"
 width="700.000000pt" height="700.000000pt" viewBox="0 0 700.000000 700.000000"
 preserveAspectRatio="xMidYMid meet">
<metadata>
Created by potrace 1.11, written by Peter Selinger 2001-2013
</metadata>
<g transform="translate(0.000000,700.000000) scale(0.100000,-0.100000)"
fill="#000000" stroke="none">
<path d="M1379 6505 c-24 -32 -51 -67 -59 -79 -23 -33 -309 -415 -352 -469
-35 -45 -38 -47 -52 -30 -9 10 -117 154 -242 321 -124 166 -229 302 -232 302
-4 0 -6 -1261 -6 -2802 1 -2115 4 -2813 13 -2846 27 -98 107 -187 201 -224
l55 -21 2163 -1 2162 -1 657 657 657 657 1 2291 c0 1259 -2 2290 -5 2290 -3 0
-114 -144 -245 -320 -132 -176 -242 -320 -245 -319 -3 0 -108 139 -235 310
-126 170 -236 317 -244 325 -11 13 -44 -26 -233 -278 -268 -358 -247 -330
-258 -347 -11 -19 1 -34 -269 327 -188 251 -237 311 -246 300 -7 -7 -115 -150
-240 -318 -262 -351 -244 -328 -253 -314 -17 27 -450 605 -469 626 -17 19 -16
20 -111 -110 -37 -51 -252 -338 -260 -347 -4 -5 -28 -37 -52 -70 -24 -33 -53
-70 -65 -82 l-20 -23 -244 326 c-134 179 -245 324 -246 322 -2 -2 -30 -39 -64
-83 -33 -44 -64 -84 -68 -90 -4 -5 -87 -115 -182 -244 l-175 -233 -19 23 c-10
13 -23 31 -30 39 -7 8 -106 141 -221 295 -115 154 -212 284 -216 288 -5 5 -28
-17 -51 -48z"/>
</g>
</svg>
