<?xml version="1.0" encoding="utf-8"?>
<!-- Generator: Adobe Illustrator 16.0.0, SVG Export Plug-In . SVG Version: 6.00 Build 0)  -->
<!DOCTYPE svg PUBLIC "-//W3C//DTD SVG 1.1//EN" "http://www.w3.org/Graphics/SVG/1.1/DTD/svg11.dtd">
<svg version="1.1" id="Layer_1" xmlns="http://www.w3.org/2000/svg" xmlns:xlink="http://www.w3.org/1999/xlink" x="0px" y="0px"
	 width="160px" height="35px" viewBox="0 0 160 35" enable-background="new 0 0 160 35" xml:space="preserve">
<g>
	<g>
		<path d="M37.444,11.395c-0.095-1.126-0.214-2.308-0.357-3.545s-0.309-2.339-0.5-3.308c-0.19-0.967-0.421-1.729-0.69-2.284
			c-0.27-0.555-0.579-0.722-0.928-0.5c-0.286,0.19-0.523,0.627-0.714,1.309c-0.19,0.683-0.35,1.468-0.476,2.356
			c-0.127,0.889-0.222,1.801-0.285,2.736c-0.064,0.937-0.095,1.722-0.095,2.356c0,0.73,0.031,1.737,0.095,3.022
			c0.063,1.285,0.103,2.689,0.119,4.212c0.016,1.523-0.047,3.07-0.19,4.64c-0.143,1.57-0.413,2.998-0.809,4.283
			c-0.397,1.284-0.96,2.332-1.689,3.141c-0.73,0.81-1.698,1.214-2.903,1.214c-1.713,0-3.435-0.5-5.164-1.499
			c-1.729-1-3.411-2.316-5.045-3.95c-1.634-1.634-3.188-3.475-4.664-5.521c-1.475-2.047-2.824-4.117-4.045-6.211
			c-1.222-2.094-2.292-4.108-3.212-6.044C4.971,5.867,4.257,4.201,3.75,2.805c-0.063-0.126-0.151-0.34-0.262-0.642
			C3.377,1.861,3.242,1.56,3.084,1.258C2.925,0.957,2.751,0.695,2.561,0.473C2.37,0.251,2.195,0.14,2.037,0.14
			c-0.19,0-0.365,0.151-0.523,0.452C1.354,0.894,1.275,1.394,1.275,2.091c0,1.333,0.27,2.61,0.809,3.831
			c0.539,1.222,1.237,2.626,2.094,4.212c-0.095,0.286-0.151,0.603-0.167,0.952c-0.017,0.349-0.032,0.793-0.048,1.332
			c-0.016,0.54-0.056,1.214-0.119,2.023c-0.064,0.809-0.19,1.816-0.38,3.022c0,0.19-0.041,0.595-0.119,1.214
			c-0.08,0.618-0.19,1.372-0.333,2.26c-0.143,0.889-0.302,1.856-0.476,2.903c-0.175,1.047-0.333,2.094-0.476,3.141
			c-0.143,1.048-0.262,2.047-0.357,2.999c-0.095,0.951-0.143,1.744-0.143,2.379c0,0.412,0.079,0.77,0.238,1.071
			c0.159,0.301,0.539,0.452,1.143,0.452c0.38,0,0.745-0.096,1.094-0.286c0.349-0.19,0.65-0.412,0.904-0.666
			c0.253-0.254,0.468-0.508,0.643-0.762c0.174-0.254,0.277-0.46,0.309-0.618c0.412-1.143,0.674-2.332,0.785-3.569
			c0.111-1.237,0.167-2.506,0.167-3.808c0-1.713-0.024-3.299-0.072-4.759c-0.047-1.459-0.04-2.903,0.024-4.331
			c0.539,0.888,1.261,1.983,2.166,3.284s1.927,2.682,3.069,4.141c1.143,1.459,2.38,2.919,3.712,4.378
			c1.333,1.46,2.696,2.769,4.093,3.926c1.396,1.158,2.792,2.102,4.188,2.832c1.396,0.729,2.728,1.095,3.998,1.095
			c1.523,0,2.823-0.35,3.902-1.047c1.078-0.698,1.975-1.603,2.689-2.713s1.277-2.355,1.689-3.735
			c0.412-1.381,0.721-2.769,0.928-4.165c0.206-1.396,0.333-2.72,0.381-3.974c0.048-1.253,0.071-2.292,0.071-3.117
			c0-0.221-0.016-0.761-0.047-1.618C37.603,13.513,37.54,12.521,37.444,11.395z M65.427,18.177c-0.254,0-0.5,0.088-0.738,0.262
			c-0.238,0.175-0.356,0.421-0.356,0.737c0,0.35-0.048,0.992-0.143,1.928c-0.095,0.937-0.214,1.912-0.357,2.927
			c-0.143,1.016-0.326,1.912-0.547,2.688c-0.222,0.778-0.476,1.166-0.761,1.166s-0.556-0.285-0.809-0.856
			c-0.254-0.571-0.452-1.285-0.595-2.142c-0.143-0.856-0.223-1.792-0.238-2.808c-0.016-1.015,0.103-1.967,0.357-2.855
			c0.063-0.285-0.087-0.483-0.452-0.595s-0.785-0.135-1.261-0.071c-0.476,0.063-0.928,0.237-1.356,0.523
			c-0.428,0.285-0.674,0.698-0.738,1.237c-0.254,2.03-0.207,3.919,0.143,5.663c-0.254,0.889-0.508,1.65-0.761,2.284
			c-0.254,0.636-0.508,0.952-0.762,0.952c-0.285,0-0.523-0.404-0.713-1.214c-0.19-0.809-0.326-1.784-0.405-2.927
			c-0.08-1.142-0.088-2.332-0.024-3.569c0.063-1.237,0.206-2.284,0.429-3.141c0.095-0.286-0.041-0.492-0.405-0.619
			c-0.365-0.126-0.785-0.159-1.261-0.095c-0.476,0.064-0.936,0.238-1.38,0.523c-0.445,0.285-0.698,0.698-0.762,1.237
			c-0.118,0.918-0.166,1.925-0.178,2.975c-0.003,0.009-0.009,0.014-0.012,0.023c-0.064,0.223-0.207,0.579-0.428,1.071
			c-0.223,0.492-0.492,1.031-0.809,1.618c-0.317,0.587-0.683,1.197-1.095,1.832c-0.413,0.635-0.841,1.189-1.285,1.665
			c-0.445,0.477-0.904,0.85-1.38,1.119c-0.476,0.27-0.92,0.341-1.333,0.214c-0.317-0.096-0.563-0.316-0.737-0.666
			c-0.175-0.35-0.302-0.777-0.381-1.285c-0.08-0.507-0.112-1.078-0.095-1.713c0.016-0.635,0.071-1.285,0.167-1.952
			c0.349-0.031,0.753-0.078,1.213-0.143c0.46-0.063,0.912-0.166,1.356-0.31c0.444-0.143,0.857-0.324,1.237-0.547
			c0.381-0.222,0.698-0.507,0.952-0.856c0.317-0.412,0.452-0.983,0.405-1.713c-0.048-0.729-0.23-1.444-0.547-2.142
			c-0.317-0.698-0.77-1.309-1.356-1.833c-0.587-0.523-1.261-0.785-2.022-0.785c-0.793,0-1.516,0.397-2.166,1.19
			c-0.65,0.793-1.189,1.792-1.618,2.999c-0.428,1.206-0.713,2.498-0.856,3.878c-0.143,1.381-0.103,2.674,0.119,3.879
			c0.222,1.206,0.65,2.206,1.285,2.998c0.634,0.793,1.523,1.19,2.665,1.19c0.952,0,1.816-0.207,2.594-0.619
			c0.777-0.413,1.467-0.928,2.07-1.547c0.603-0.618,1.119-1.3,1.547-2.046c0.285-0.496,0.531-0.978,0.76-1.453
			c0.054,0.367,0.096,0.747,0.168,1.096c0.253,1.237,0.65,2.269,1.189,3.094c0.539,0.824,1.253,1.221,2.142,1.189
			c0.729-0.063,1.38-0.381,1.951-0.951c0.571-0.571,1.079-1.301,1.523-2.189c0.349,0.603,0.769,1.07,1.261,1.403
			c0.492,0.334,1.071,0.469,1.737,0.405c0.697-0.031,1.3-0.31,1.808-0.833c0.507-0.523,0.936-1.166,1.285-1.928
			c0.349-0.762,0.634-1.602,0.856-2.522c0.222-0.92,0.396-1.792,0.523-2.617c0.126-0.824,0.214-1.554,0.262-2.189
			c0.048-0.634,0.087-1.047,0.119-1.237c0.031-0.316-0.064-0.563-0.286-0.737C65.918,18.265,65.681,18.177,65.427,18.177z
			 M45.059,19.438c0.253-0.714,0.491-1.118,0.714-1.213c0.126-0.063,0.245,0.031,0.357,0.285c0.111,0.254,0.19,0.571,0.238,0.952
			c0.048,0.381,0.055,0.754,0.024,1.118c-0.032,0.365-0.112,0.643-0.238,0.833c-0.159,0.254-0.413,0.421-0.761,0.499
			c-0.35,0.08-0.698,0.119-1.047,0.119C44.566,21.017,44.804,20.151,45.059,19.438z M160.201,21.865
			c-0.143-0.175-0.325-0.27-0.547-0.286c-0.223-0.016-0.437,0.04-0.643,0.167c-0.207,0.127-0.342,0.35-0.404,0.666
			c-0.064,0.381-0.223,0.944-0.477,1.689c-0.254,0.746-0.539,1.483-0.856,2.213c-0.317,0.73-0.627,1.373-0.928,1.928
			c-0.302,0.556-0.548,0.833-0.737,0.833c-0.286,0-0.461-0.254-0.524-0.762c-0.063-0.507-0.063-1.118,0-1.832
			s0.167-1.468,0.31-2.261s0.277-1.476,0.404-2.047c0.127-0.57,0.063-0.935-0.189-1.094c-0.255-0.159-0.571-0.23-0.952-0.215
			c-0.381,0.017-0.785,0.056-1.214,0.119c-0.428,0.064-0.737,0.048-0.928-0.048c0.254-0.602,0.349-1.149,0.285-1.642
			c-0.063-0.491-0.428-0.737-1.095-0.737c-0.38,0-0.722,0.119-1.022,0.356c-0.302,0.238-0.532,0.523-0.69,0.856
			c-0.158,0.334-0.222,0.69-0.19,1.071c0.032,0.381,0.19,0.714,0.476,0.999l-0.285,0.81c-0.015,0.034-0.011,0.061-0.022,0.093
			c-0.077,0.201-0.174,0.436-0.311,0.74c-0.222,0.492-0.492,1.031-0.809,1.618c-0.317,0.587-0.683,1.197-1.095,1.832
			c-0.413,0.635-0.841,1.189-1.285,1.665c-0.444,0.477-0.904,0.85-1.38,1.119s-0.921,0.341-1.333,0.214
			c-0.317-0.096-0.563-0.316-0.737-0.666c-0.175-0.35-0.302-0.777-0.381-1.285c-0.079-0.507-0.111-1.078-0.095-1.713
			c0.016-0.635,0.071-1.285,0.166-1.952c0.349-0.031,0.754-0.078,1.214-0.143c0.46-0.063,0.912-0.166,1.356-0.31
			c0.443-0.143,0.856-0.324,1.237-0.547c0.381-0.222,0.697-0.507,0.951-0.856c0.317-0.412,0.452-0.983,0.405-1.713
			c-0.048-0.729-0.23-1.444-0.548-2.142c-0.317-0.698-0.77-1.309-1.356-1.833c-0.587-0.523-1.261-0.785-2.022-0.785
			c-0.793,0-1.515,0.397-2.165,1.19c-0.65,0.793-1.189,1.792-1.618,2.999c-0.262,0.738-0.452,1.52-0.607,2.322
			c-0.166,0.347-0.349,0.75-0.558,1.247c-0.255,0.603-0.523,1.197-0.81,1.784c-0.285,0.588-0.571,1.118-0.856,1.595
			c-0.285,0.476-0.571,0.809-0.856,0.999c-0.255,0.159-0.469,0.119-0.643-0.119c-0.175-0.237-0.294-0.587-0.357-1.047
			c-0.063-0.459-0.079-0.991-0.047-1.594c0.031-0.603,0.143-1.19,0.333-1.762c0.222-0.729,0.182-1.205-0.119-1.428
			c-0.302-0.221-0.698-0.309-1.189-0.262c-0.492,0.048-1,0.159-1.523,0.334c-0.523,0.174-0.896,0.293-1.118,0.356
			c0.19-0.285,0.555-0.618,1.095-0.999c0.539-0.381,1.11-0.793,1.713-1.237s1.182-0.904,1.737-1.381
			c0.555-0.476,0.943-0.951,1.166-1.427c0.19-0.412,0.095-0.729-0.285-0.952c-0.381-0.222-0.833-0.333-1.356-0.333
			s-1.031,0.095-1.523,0.286s-0.754,0.46-0.785,0.809c-0.127,0.761-0.5,1.531-1.118,2.308c-0.619,0.777-1.293,1.61-2.022,2.498
			c0.031-1.459,0.079-2.91,0.143-4.354c0.063-1.443,0.126-2.768,0.19-3.974c0.063-1.205,0.126-2.22,0.19-3.045
			c0.063-0.825,0.11-1.348,0.143-1.571c0.063-0.349-0.095-0.586-0.476-0.714c-0.381-0.126-0.81-0.126-1.285,0
			c-0.476,0.127-0.912,0.374-1.309,0.738c-0.397,0.365-0.579,0.849-0.548,1.452v1.88c0,0.904-0.008,1.967-0.023,3.188
			c-0.017,1.222-0.04,2.538-0.071,3.95c-0.021,0.927-0.042,1.827-0.063,2.732c-0.101,0.322-0.316,0.852-0.651,1.598
			c-0.35,0.778-0.777,1.547-1.285,2.309s-1.087,1.404-1.736,1.928c-0.651,0.523-1.356,0.674-2.118,0.452
			c-0.444-0.127-0.754-0.444-0.928-0.952c-0.175-0.507-0.262-1.11-0.262-1.809c0-0.697,0.071-1.435,0.214-2.213
			c0.143-0.777,0.31-1.499,0.5-2.165c0.19-0.667,0.404-1.222,0.643-1.666c0.237-0.444,0.452-0.682,0.643-0.714
			c0.189-0.031,0.293,0.167,0.309,0.595c0.016,0.429,0,0.937-0.047,1.523c-0.048,0.587-0.119,1.166-0.215,1.736
			c-0.095,0.571-0.159,0.984-0.19,1.237c-0.063,0.381,0.04,0.619,0.31,0.714c0.27,0.096,0.587,0.072,0.952-0.071
			c0.364-0.143,0.714-0.411,1.047-0.809c0.333-0.396,0.531-0.912,0.595-1.547c0.126-1.428-0.104-2.673-0.69-3.735
			c-0.587-1.063-1.483-1.595-2.688-1.595c-0.793,0-1.507,0.333-2.142,0.999c-0.635,0.667-1.166,1.499-1.595,2.499
			c-0.276,0.646-0.477,1.339-0.641,2.052c-0.077,0.303-0.187,0.669-0.334,1.113c-0.223,0.666-0.461,1.332-0.714,1.998
			c-0.255,0.667-0.517,1.246-0.785,1.737c-0.271,0.492-0.5,0.737-0.69,0.737c-0.285,0-0.469-0.285-0.548-0.856
			s-0.103-1.253-0.071-2.046s0.103-1.618,0.215-2.475c0.11-0.857,0.229-1.571,0.356-2.142c0.096-0.508-0.032-0.936-0.381-1.285
			c-0.35-0.349-0.761-0.555-1.237-0.619c-0.219-0.028-0.429-0.017-0.63,0.028c0.565-0.294,1.114-0.601,1.63-0.933
			c1.332-0.856,2.419-1.879,3.26-3.069c0.84-1.189,1.261-2.562,1.261-4.116c0-1.079-0.246-2.054-0.737-2.927
			c-0.492-0.872-1.15-1.642-1.975-2.308c-0.826-0.666-1.761-1.245-2.809-1.737c-1.047-0.492-2.126-0.912-3.235-1.261
			c-1.111-0.349-2.197-0.634-3.261-0.856c-1.063-0.222-2.022-0.396-2.879-0.523c-1.016-0.126-2.078-0.238-3.188-0.333
			c-1.111-0.095-2.174-0.143-3.188-0.143c-1.683,0-3.388,0.111-5.116,0.333c-1.729,0.222-3.427,0.547-5.092,0.976
			c-1.666,0.428-3.276,0.968-4.831,1.618c-1.555,0.651-2.982,1.42-4.283,2.308c-0.095,0.032-0.27,0.143-0.523,0.333
			c-0.254,0.19-0.516,0.413-0.786,0.667c-0.27,0.254-0.516,0.523-0.737,0.809c-0.223,0.285-0.333,0.54-0.333,0.761
			c0,0.381,0.381,0.571,1.142,0.571c0.254,0,0.547-0.04,0.881-0.119c0.333-0.079,0.809-0.222,1.428-0.428
			c0.619-0.206,1.435-0.483,2.451-0.833c1.015-0.349,2.331-0.809,3.949-1.38c1.999-0.539,4.021-0.976,6.068-1.309
			c2.046-0.333,4.116-0.5,6.21-0.5c0.983,0,2.102,0.04,3.355,0.119c1.253,0.08,2.522,0.222,3.808,0.428
			c1.284,0.207,2.538,0.476,3.76,0.809c1.221,0.333,2.308,0.746,3.26,1.237c0.951,0.492,1.721,1.063,2.308,1.713
			c0.587,0.65,0.881,1.404,0.881,2.26c0,0.554-0.1,1.075-0.292,1.566c-0.593-0.148-1.241-0.164-1.945-0.043
			c-0.92,0.159-1.658,0.484-2.213,0.976c-0.555,0.492-0.769,1.087-0.643,1.785c0.067,0.467,0.308,0.827,0.701,1.092
			c-1.041,0.561-2.166,1.063-3.413,1.479c-1.428,0.476-2.84,0.88-4.235,1.213c-1.396,0.334-2.706,0.604-3.927,0.81
			c-1.222,0.207-2.182,0.356-2.879,0.452c0.031-0.412,0.11-0.943,0.237-1.595c0.127-0.649,0.238-1.348,0.334-2.094
			c0.095-0.745,0.149-1.483,0.166-2.213c0.016-0.729-0.048-1.396-0.19-1.999c-0.143-0.602-0.404-1.094-0.785-1.475
			s-0.921-0.571-1.618-0.571c-0.35,0-0.627,0.23-0.833,0.69s-0.373,1.04-0.499,1.737c-0.128,0.698-0.23,1.468-0.31,2.308
			c-0.08,0.841-0.151,1.658-0.214,2.451c-0.064,0.793-0.119,1.507-0.167,2.141c-0.048,0.636-0.119,1.079-0.214,1.333
			c-1.302,0.19-2.57,0.373-3.808,0.547c-1.237,0.175-2.459,0.294-3.664,0.357c-0.445,0.063-1.143,0.143-2.095,0.237
			c-0.951,0.096-1.927,0.223-2.926,0.381c-1,0.159-1.873,0.35-2.618,0.571c-0.746,0.223-1.118,0.46-1.118,0.714
			c0,0.019,0.009,0.035,0.011,0.053c-0.236-0.179-0.472-0.36-0.725-0.505c-0.698-0.396-1.356-0.682-1.975-0.856
			c-0.619-0.174-0.96-0.262-1.023-0.262c0.095,0,0.316-0.04,0.666-0.119c0.349-0.079,0.769-0.167,1.261-0.262
			c0.492-0.095,1.015-0.206,1.571-0.333c0.555-0.127,1.086-0.254,1.594-0.381c0.571-0.158,0.896-0.452,0.976-0.881
			c0.079-0.428,0.007-0.84-0.214-1.237c-0.222-0.396-0.54-0.705-0.952-0.928c-0.413-0.222-0.826-0.222-1.237,0
			c-0.857,0.508-1.833,0.912-2.927,1.214c-1.094,0.302-2.118,0.452-3.069,0.452c-0.476,0-0.833,0.15-1.071,0.452
			s-0.364,0.635-0.381,0.999c-0.016,0.365,0.048,0.714,0.19,1.047c0.143,0.333,0.357,0.532,0.643,0.595
			c0.253,0.064,0.587,0.167,1,0.31c0.412,0.143,0.833,0.333,1.261,0.571c0.428,0.238,0.856,0.523,1.285,0.856
			s0.785,0.707,1.071,1.118c0.349,0.477,0.603,0.944,0.762,1.404c0.158,0.46,0.221,0.873,0.19,1.237
			c-0.032,0.365-0.151,0.659-0.357,0.881c-0.207,0.222-0.468,0.333-0.785,0.333c-0.254,0-0.508-0.222-0.761-0.667
			c-0.254-0.443-0.302-1.157-0.143-2.142c0.063-0.476-0.088-0.809-0.452-0.999c-0.365-0.19-0.778-0.238-1.238-0.143
			c-0.46,0.095-0.888,0.317-1.285,0.666c-0.397,0.35-0.595,0.825-0.595,1.428c0,0.73,0.143,1.356,0.428,1.88
			c0.285,0.523,0.658,0.937,1.118,1.237c0.459,0.302,0.983,0.5,1.571,0.595c0.586,0.096,1.197,0.096,1.832,0
			c1.015-0.222,1.904-0.658,2.665-1.309c0.761-0.649,1.142-1.53,1.142-2.642c0-1.015-0.286-1.855-0.856-2.521
			c-0.18-0.21-0.377-0.382-0.569-0.565c0.392,0.123,0.873,0.201,1.449,0.231c0.587,0.032,1.221,0.032,1.904,0
			c0.682-0.031,1.324-0.071,1.928-0.118c0.602-0.048,1.102-0.087,1.499-0.119c0.396-0.031,0.61-0.031,0.643,0
			c1.332-0.127,2.672-0.254,4.021-0.381c1.348-0.126,2.72-0.27,4.116-0.429c0,2.443,0.039,4.49,0.119,6.14
			c0.079,1.649,0.341,3.046,0.785,4.188c0.158,0.508,0.364,0.762,0.618,0.762c0.412,0,0.762-0.421,1.048-1.261
			c0.285-0.842,0.523-1.864,0.714-3.07c0.189-1.205,0.34-2.475,0.452-3.807c0.11-1.333,0.182-2.49,0.214-3.475
			c0.982-0.126,2.229-0.309,3.735-0.547s3.094-0.555,4.76-0.952c1.665-0.396,3.331-0.896,4.997-1.499
			c0.741-0.269,1.445-0.566,2.121-0.885c-0.348,0.296-0.527,0.792-0.527,1.504c0,1.016-0.04,2.055-0.119,3.117
			c-0.079,1.063-0.087,2.046-0.023,2.95s0.277,1.698,0.643,2.38c0.364,0.683,0.976,1.15,1.832,1.403
			c0.571,0.159,1.095,0.096,1.57-0.19c0.476-0.285,0.912-0.689,1.309-1.213c0.335-0.442,0.628-0.953,0.895-1.509
			c0.244,0.771,0.615,1.444,1.128,2.008c0.635,0.698,1.523,1.079,2.665,1.143c0.888,0.031,1.689-0.119,2.403-0.452
			s1.349-0.769,1.904-1.309c0.555-0.539,1.038-1.143,1.451-1.809c0.104-0.17,0.194-0.333,0.291-0.5
			c-0.01,0.277-0.019,0.564-0.029,0.833c-0.048,1.206-0.088,2.206-0.119,2.998c0,0.477,0.166,0.833,0.499,1.071
			c0.334,0.237,0.714,0.364,1.143,0.381c0.429,0.016,0.809-0.08,1.143-0.286c0.333-0.206,0.499-0.531,0.499-0.976
			c-0.031-0.697-0.04-1.57-0.023-2.617c0.016-1.047,0.039-2.173,0.071-3.379c0.127-0.19,0.31-0.373,0.547-0.548
			c0.238-0.174,0.477-0.309,0.714-0.404c0.238-0.095,0.437-0.143,0.596-0.143c0.158,0,0.237,0.08,0.237,0.238
			c-0.063,0.35-0.119,0.904-0.166,1.665c-0.048,0.762,0,1.523,0.143,2.285c0.143,0.761,0.428,1.412,0.856,1.951
			s1.118,0.777,2.07,0.714c0.793-0.063,1.507-0.429,2.142-1.095c0.634-0.667,1.182-1.436,1.642-2.309
			c0.047-0.089,0.086-0.177,0.131-0.266c0.033,0.308,0.076,0.61,0.131,0.908c0.222,1.206,0.649,2.206,1.285,2.998
			c0.634,0.793,1.522,1.19,2.664,1.19c0.952,0,1.816-0.207,2.594-0.619c0.777-0.413,1.468-0.928,2.07-1.547
			c0.603-0.618,1.119-1.3,1.547-2.046c0.429-0.745,0.793-1.468,1.095-2.166c0.301-0.697,0.531-1.324,0.69-1.88
			c0.158-0.555,0.269-0.928,0.333-1.118c0.011-0.048,0.003-0.085,0.008-0.13c0.017-0.034,0.02-0.075,0.039-0.107h0.477
			c0.158,0,0.316-0.016,0.476-0.048c-0.255,0.762-0.452,1.65-0.595,2.665c-0.144,1.016-0.167,1.975-0.071,2.879
			c0.095,0.904,0.316,1.683,0.666,2.332c0.349,0.65,0.904,0.991,1.665,1.023c0.667,0.031,1.269-0.136,1.809-0.5
			c0.539-0.364,1.031-0.849,1.476-1.451s0.824-1.262,1.143-1.976c0.316-0.714,0.586-1.396,0.809-2.046
			c0.222-0.65,0.396-1.237,0.523-1.761s0.206-0.864,0.238-1.023C160.399,22.286,160.344,22.04,160.201,21.865z M143.807,19.438
			c0.254-0.714,0.491-1.118,0.714-1.213c0.127-0.063,0.245,0.031,0.357,0.285c0.11,0.254,0.19,0.571,0.237,0.952
			c0.048,0.381,0.056,0.754,0.024,1.118c-0.032,0.365-0.112,0.643-0.238,0.833c-0.159,0.254-0.413,0.421-0.762,0.499
			c-0.35,0.08-0.698,0.119-1.047,0.119C143.314,21.017,143.553,20.151,143.807,19.438z"/>
	</g>
</g>
</svg>
