<svg xmlns="http://www.w3.org/2000/svg" id="svg4063" viewBox="0 0 32 32" width="500" height="500" version="1.1"><defs id="defs4065" /><g id="layer1" transform="translate(0 -1020.36)"><g id="g7205"><path id="path5052" style="opacity: 1; fill: #f9f9f9; fill-opacity: 1; stroke: none; stroke-dasharray: none; stroke-linecap: round; stroke-linejoin: round; stroke-miterlimit: 4.1; stroke-width: 1;" d="m 2.00051 1022.36 l 0 25.5 c 0 0.831 0.66899 1.5 1.5 1.5 l 19.5 0 l 6 -6 l 0 -21 l -0.004 0 l -2.24804 3 l -2.24805 -3 l -2.24805 3 l -2.24804 -3 l -0.01 0 l -2.24805 3 l -2.24804 -3 l -2.24805 3 l -2.25 -3 l -2.24805 3 l -2.24804 -3 l -2.24805 3 l -2.24805 -3 l -0.008 0 Z" /><path id="rect5054" style="opacity: 1; fill: #f8ac1b; fill-opacity: 1; stroke: none; stroke-dasharray: none; stroke-linecap: round; stroke-linejoin: round; stroke-miterlimit: 4.1; stroke-width: 1;" d="m 4.00138 1034.36 l 13 0 l 0 13 l -13 0 Z" /><path id="rect5056" style="opacity: 1; fill: #07b0c5; fill-opacity: 1; stroke: none; stroke-dasharray: none; stroke-linecap: round; stroke-linejoin: round; stroke-miterlimit: 4.1; stroke-width: 1;" d="m 4.00138 1028.36 l 23 0 l 0 3 l -23 0 Z" /><path id="path5058" style="opacity: 1; fill: #cbcbcb; fill-opacity: 1; stroke: none; stroke-dasharray: none; stroke-linecap: round; stroke-linejoin: round; stroke-miterlimit: 4.1; stroke-width: 1;" d="m 29.0014 1043.36 l -4.2 0 c -0.99722 0 -1.8 0.8028 -1.8 1.8 l 0 4.2 Z" /><path id="path5070" style="font:/normal sans-serif; color: rgb(0, 0, 0); text-transform: none; text-indent: 0px; letter-spacing: normal; overflow: visible; text-decoration: none; word-spacing: normal; display: inline; white-space: normal; visibility: visible; direction: ltr; -ms-writing-mode: lr-tb; baseline-shift: baseline; font-stretch: normal; opacity: 1; clip-rule: nonzero; fill: #cbcbcb; fill-opacity: 1; fill-rule: evenodd; stroke: none; stroke-dasharray: none; stroke-dashoffset: 0; stroke-linecap: round; stroke-linejoin: round; stroke-miterlimit: 4; stroke-opacity: 1; stroke-width: 1px; text-anchor: start; color-interpolation-filters: linearRGB; enable-background: accumulate; text-decoration-line: none; text-decoration-style: solid; text-decoration-color: #000000; block-progression: tb; isolation: auto; mix-blend-mode: normal; color-interpolation: sRGB; solid-color: #000000; solid-opacity: 1; color-rendering: auto; image-rendering: auto; shape-rendering: auto; text-rendering: auto;" d="m 19.002 1035.86 a 0.50005 0.50005 0 1 0 0 1 l 0.0059 0 a 0.50005 0.50005 0 1 0 0 -1 l -0.0059 0 Z m 2 0 a 0.50005 0.50005 0 1 0 0 1 l 5.00586 0 a 0.50005 0.50005 0 1 0 0 -1 l -5.00586 0 Z" /><path id="path5073" style="font:/normal sans-serif; color: rgb(0, 0, 0); text-transform: none; text-indent: 0px; letter-spacing: normal; overflow: visible; text-decoration: none; word-spacing: normal; display: inline; white-space: normal; visibility: visible; direction: ltr; -ms-writing-mode: lr-tb; baseline-shift: baseline; opacity: 1; clip-rule: nonzero; fill: #cbcbcb; fill-opacity: 1; fill-rule: evenodd; stroke: none; stroke-dasharray: none; stroke-dashoffset: 0; stroke-linecap: round; stroke-linejoin: round; stroke-miterlimit: 4; stroke-opacity: 1; stroke-width: 1px; text-anchor: start; color-interpolation-filters: linearRGB; enable-background: accumulate; text-decoration-line: none; text-decoration-style: solid; text-decoration-color: #000000; block-progression: tb; isolation: auto; mix-blend-mode: normal; color-interpolation: sRGB; solid-color: #000000; solid-opacity: 1; color-rendering: auto; image-rendering: auto; shape-rendering: auto; text-rendering: auto;" d="m 19.002 1037.86 a 0.50005 0.50005 0 1 0 0 1 l 0.0059 0 a 0.50005 0.50005 0 1 0 0 -1 l -0.0059 0 Z m 2 0 a 0.50005 0.50005 0 1 0 0 1 l 5.00586 0 a 0.50005 0.50005 0 1 0 0 -1 l -5.00586 0 Z" /><path id="path5075" style="font:/normal sans-serif; text-transform: none; text-indent: 0px; letter-spacing: normal; overflow: visible; text-decoration: none; word-spacing: normal; display: inline; white-space: normal; visibility: visible; direction: ltr; -ms-writing-mode: lr-tb; baseline-shift: baseline; font-stretch: normal; opacity: 1; clip-rule: nonzero; fill: #cbcbcb; fill-opacity: 1; fill-rule: evenodd; stroke: none; stroke-dasharray: none; stroke-dashoffset: 0; stroke-linecap: round; stroke-linejoin: round; stroke-miterlimit: 4; stroke-opacity: 1; stroke-width: 1px; text-anchor: start; color-interpolation-filters: linearRGB; enable-background: accumulate; text-decoration-line: none; text-decoration-style: solid; text-decoration-color: #000000; block-progression: tb; isolation: auto; mix-blend-mode: normal; color-interpolation: sRGB; solid-color: #000000; solid-opacity: 1; color-rendering: auto; image-rendering: auto; shape-rendering: auto; text-rendering: auto;" d="m 19.002 1039.86 a 0.50005 0.50005 0 1 0 0 1 l 0.0059 0 a 0.50005 0.50005 0 1 0 0 -1 l -0.0059 0 Z m 2 0 a 0.50005 0.50005 0 1 0 0 1 l 5.00586 0 a 0.50005 0.50005 0 1 0 0 -1 l -5.00586 0 Z" /></g></g></svg>