<?xml version="1.0" ?><svg style="enable-background:new 0 0 48 48;" version="1.1" viewBox="0 0 48 48" xml:space="preserve" xmlns="http://www.w3.org/2000/svg" xmlns:xlink="http://www.w3.org/1999/xlink"><g id="Icons"><g><path d="M20.55,32.45225l0.03,0.04l3.15001,4.35001c0.10272,0.13467,0.44284,0.12592,0.54001-0.02002    L27.44,32.50225l0.04-0.05h11.8c0.64,0,1.16-0.52,1.16-1.16v-19.07c0-0.64-0.52-1.16-1.16-1.16H8.72c-0.64,0-1.16,0.52-1.16,1.16    v19.07c0,0.64,0.52,1.16,1.16,1.16H20.55z" style="fill:#F4F4F4;"/><path d="M22.68779,25.10484c-0.71456,0.42315-1.54888,0.66666-2.43909,0.66666    c-2.64667,0-4.79435-2.14768-4.79435-4.79435s2.14768-4.79435,4.79435-4.79435s4.79435,2.14767,4.79435,4.79435    c0,0.994-0.30339,1.91614-0.81835,2.67861l0.19561,1.72852L22.68779,25.10484" style="fill:#EF4B53;"/><path d="    M16.90841,20.21288c0-1.49817,1.56483-2.78819,3.063-2.78819" style="fill:none;stroke:#303030;stroke-width:0.7;stroke-linecap:round;stroke-linejoin:round;stroke-miterlimit:10;"/><path d="    M22.68779,25.10484c-0.71456,0.42315-1.54888,0.66666-2.43909,0.66666c-2.64667,0-4.79435-2.14768-4.79435-4.79435    s2.14768-4.79435,4.79435-4.79435s4.79435,2.14767,4.79435,4.79435c0,0.994-0.30339,1.91614-0.81835,2.67861l0.19561,1.72852    L22.68779,25.10484" style="fill:none;stroke:#303030;stroke-width:0.7;stroke-linecap:round;stroke-linejoin:round;stroke-miterlimit:10;"/><path d="M31.52612,18.06309h-0.02393l-1.35547,0.73145l-0.20361-0.80371l1.70264-0.91162h0.8999v7.7959    h-1.01953V18.06309z" style="fill:#303030;"/><path d="    M20.55,32.45225l0.03,0.04l3.15001,4.35001c0.10272,0.13467,0.44284,0.12592,0.54001-0.02002L27.44,32.50225l0.04-0.05h11.8    c0.64,0,1.16-0.52,1.16-1.16v-19.07c0-0.64-0.52-1.16-1.16-1.16H8.72c-0.64,0-1.16,0.52-1.16,1.16v19.07    c0,0.64,0.52,1.16,1.16,1.16H20.55z" style="fill:none;stroke:#303030;stroke-width:0.7;stroke-linecap:round;stroke-linejoin:round;stroke-miterlimit:10;"/></g></g></svg>