<?xml version="1.0" ?><svg style="enable-background:new 0 0 48 48;" version="1.1" viewBox="0 0 48 48" xml:space="preserve" xmlns="http://www.w3.org/2000/svg" xmlns:xlink="http://www.w3.org/1999/xlink"><g id="Icons"><g><path d="M20.55,32.45225l0.03,0.04l3.15001,4.35001c0.10272,0.13467,0.44284,0.12592,0.54001-0.02002    L27.44,32.50225l0.04-0.05h11.8c0.64,0,1.16-0.52,1.16-1.16v-19.07c0-0.64-0.52-1.16-1.16-1.16H8.72c-0.64,0-1.16,0.52-1.16,1.16    v19.07c0,0.64,0.52,1.16,1.16,1.16H20.55z" style="fill:#F4F4F4;"/><path d="M25.0613,22.99768l0.33547-0.33201c0.64673-0.64673,0.96837-1.50443,0.96837-2.35521    c0-0.85424-0.32164-1.70848-0.96837-2.35521c-1.29346-1.29346-3.4135-1.29346-4.71043,0l-0.33201,0.33547l-0.33547-0.33547    c-1.29346-1.29346-3.4135-1.29346-4.70697,0c-0.65019,0.64673-0.97183,1.50097-0.97183,2.35521    c0,0.85078,0.32164,1.70848,0.97183,2.35521l0.33201,0.33201l4.53941,4.53941c0.09444,0.09444,0.24756,0.09441,0.34196-0.00006    L25.0613,22.99768" style="fill:#EF4B53;"/><path d="    M25.0613,22.99768l0.33547-0.33201c0.64673-0.64673,0.96837-1.50443,0.96837-2.35521c0-0.85424-0.32164-1.70848-0.96837-2.35521    c-1.29346-1.29346-3.4135-1.29346-4.71043,0l-0.33201,0.33547l-0.33547-0.33547c-1.29346-1.29346-3.4135-1.29346-4.70697,0    c-0.65019,0.64673-0.97183,1.50097-0.97183,2.35521c0,0.85078,0.32164,1.70848,0.97183,2.35521l0.33201,0.33201l4.53941,4.53941    c0.09444,0.09444,0.24756,0.09441,0.34196-0.00006L25.0613,22.99768" style="fill:none;stroke:#303030;stroke-width:0.7;stroke-linecap:round;stroke-linejoin:round;stroke-miterlimit:10;"/><line style="fill:none;stroke:#303030;stroke-width:0.7;stroke-linecap:round;stroke-linejoin:round;stroke-miterlimit:10;" x1="16.72207" x2="18.36625" y1="21.98405" y2="23.61218"/><line style="fill:none;stroke:#303030;stroke-width:0.7;stroke-linecap:round;stroke-linejoin:round;stroke-miterlimit:10;" x1="19.12839" x2="19.3308" y1="24.37019" y2="24.56248"/><g><path d="M32.6446,19.24002h-0.02393l-1.35547,0.73145l-0.20361-0.80371l1.70264-0.91162h0.8999v7.7959     H32.6446V19.24002z" style="fill:#303030;"/></g><path d="    M20.55,32.45225l0.03,0.04l3.15001,4.35001c0.10272,0.13467,0.44284,0.12592,0.54001-0.02002L27.44,32.50225l0.04-0.05h11.8    c0.64,0,1.16-0.52,1.16-1.16v-19.07c0-0.64-0.52-1.16-1.16-1.16H8.72c-0.64,0-1.16,0.52-1.16,1.16v19.07    c0,0.64,0.52,1.16,1.16,1.16H20.55z" style="fill:none;stroke:#303030;stroke-width:0.7;stroke-linecap:round;stroke-linejoin:round;stroke-miterlimit:10;"/></g></g></svg>